<?xml version="1.0" encoding="utf-8"?>
<!-- Generator: Adobe Illustrator 21.0.0, SVG Export Plug-In . SVG Version: 6.00 Build 0)  -->
<svg version="1.1" id="Layer_1" xmlns="http://www.w3.org/2000/svg" xmlns:xlink="http://www.w3.org/1999/xlink" x="0px" y="0px"
	 viewBox="0 0 1773 2009.9" style="enable-background:new 0 0 1773 2009.9;" xml:space="preserve">
<style type="text/css">
	.st0{fill:#E44D26;}
	.st1{fill:#F16529;}
	.st2{fill:#EBEBEB;}
	.st3{display:none;}
	.st4{fill:#FFFFFF;}
</style>
<path class="st0" d="M1769.8,0l-160.9,1803l-723.5,200.6l-721.5-200.3L3.1,0H1769.8L1769.8,0z"/>
<path class="st1" d="M886.4,1850.3l584.6-162.1l137.5-1540.8H886.4V1850.3z"/>
<path class="st2" d="M573.5,589.8h312.9V368.6H331.8l5.3,59.3l54.4,609.5h494.9V816.3H593.8L573.5,589.8z M623.4,1148h-222l31,347.3
	l453.1,125.8l1-0.3v-230.1l-1,0.3l-246.3-66.5L623.4,1148L623.4,1148z"/>
<path class="st3" d="M167.5-490.1h112.4v111h102.8v-111h112.4v336.3H382.7v-112.6H279.9v112.6H167.5L167.5-490.1L167.5-490.1z
	 M642.9-378.6h-98.9v-111.5h310.3v111.5h-99v224.8H642.9L642.9-378.6L642.9-378.6L642.9-378.6z M903.5-490.1h117.2l72.1,118.2
	l72-118.2h117.2v336.3h-111.9v-166.7l-77.3,119.6h-1.9l-77.4-119.6v166.7h-110V-490.1z M1338-490.1h112.4v225.1h158.1v111.1H1338
	L1338-490.1L1338-490.1z"/>
<path class="st4" d="M885.7,1037.4H1158l-25.7,286.8l-246.7,66.6V1621l453.4-125.7l3.3-37.4l52-582.3l5.4-59.4H885.7V1037.4
	L885.7,1037.4z M885.7,589.3v0.5h534.2l4.4-49.7l10.1-112.1l5.3-59.3h-554V589.3L885.7,589.3z"/>
</svg>
