<svg xmlns="http://www.w3.org/2000/svg" viewBox="0 0 185.74 50.16"><defs><style>.cls-1{fill:#333;}.cls-1,.cls-2{fill-rule:evenodd;}.cls-2,.cls-3{fill:#80bd01;}</style></defs><title>node</title><g id="Layer_2" data-name="Layer 2"><g id="Layer_1-2" data-name="Layer 1"><path class="cls-1" d="M27.95,26.66a1.5,1.5,0,0,0-.75-1.31L14.73,18.17A1.47,1.47,0,0,0,14,18h-.13a1.49,1.49,0,0,0-.69.2L.75,25.35A1.51,1.51,0,0,0,0,26.66L0,46a.74.74,0,0,0,.38.65.72.72,0,0,0,.75,0l7.41-4.24a1.52,1.52,0,0,0,.75-1.31v-9a1.5,1.5,0,0,1,.75-1.3l3.16-1.82a1.5,1.5,0,0,1,.75-.2,1.47,1.47,0,0,1,.75.2l3.15,1.82a1.5,1.5,0,0,1,.75,1.3v9a1.52,1.52,0,0,0,.75,1.31l7.41,4.24a.73.73,0,0,0,.75,0,.75.75,0,0,0,.37-.65Z"/><path class="cls-1" d="M94.53.1a.75.75,0,0,0-1.12.66V19.89a.53.53,0,0,1-.79.46l-3.12-1.8a1.51,1.51,0,0,0-1.5,0l-12.47,7.2a1.51,1.51,0,0,0-.75,1.3v14.4a1.51,1.51,0,0,0,.75,1.3L88,50a1.51,1.51,0,0,0,1.51,0L102,42.75a1.51,1.51,0,0,0,.75-1.3V5.55A1.51,1.51,0,0,0,102,4.24ZM93.37,36.72a.38.38,0,0,1-.19.33L88.9,39.51a.38.38,0,0,1-.38,0L84.24,37a.38.38,0,0,1-.19-.33V31.77a.38.38,0,0,1,.19-.33L88.52,29a.38.38,0,0,1,.38,0l4.28,2.47a.38.38,0,0,1,.19.33Z"/><path class="cls-1" d="M139.15,31.64a1.51,1.51,0,0,0,.75-1.3V26.85a1.51,1.51,0,0,0-.75-1.3l-12.39-7.2a1.51,1.51,0,0,0-1.51,0l-12.47,7.2a1.51,1.51,0,0,0-.75,1.3v14.4a1.51,1.51,0,0,0,.76,1.31l12.39,7.06a1.51,1.51,0,0,0,1.48,0l7.5-4.17a.75.75,0,0,0,0-1.31l-12.55-7.2a.75.75,0,0,1-.38-.65V31.78a.75.75,0,0,1,.38-.65l3.91-2.25a.75.75,0,0,1,.75,0l3.91,2.25a.75.75,0,0,1,.38.65v3.55a.75.75,0,0,0,1.13.65Z"/><path class="cls-2" d="M50.63,18.27a1.51,1.51,0,0,1,1.51,0l12.47,7.2a1.51,1.51,0,0,1,.75,1.3V41.18a1.51,1.51,0,0,1-.75,1.3l-12.47,7.2a1.51,1.51,0,0,1-1.51,0l-12.47-7.2a1.51,1.51,0,0,1-.75-1.3V26.78a1.51,1.51,0,0,1,.75-1.3Z"/><path class="cls-3" d="M163.37,49.9a2.46,2.46,0,0,1-1.23-.33l-3.93-2.32c-.59-.33-.3-.44-.11-.51a7.83,7.83,0,0,0,1.78-.81.3.3,0,0,1,.29,0l3,1.79a.39.39,0,0,0,.36,0l11.76-6.79a.37.37,0,0,0,.18-.32V27.06a.38.38,0,0,0-.18-.32L163.55,20a.37.37,0,0,0-.36,0l-11.75,6.78a.38.38,0,0,0-.19.32V40.63a.36.36,0,0,0,.19.31l3.22,1.86c1.75.87,2.82-.16,2.82-1.19V28.22a.34.34,0,0,1,.34-.34h1.49a.34.34,0,0,1,.34.34v13.4c0,2.33-1.27,3.67-3.48,3.67a5,5,0,0,1-2.71-.74l-3.08-1.78a2.48,2.48,0,0,1-1.23-2.15V27.06a2.48,2.48,0,0,1,1.23-2.14l11.76-6.8a2.58,2.58,0,0,1,2.47,0l11.76,6.8a2.48,2.48,0,0,1,1.24,2.14V40.63a2.49,2.49,0,0,1-1.24,2.15l-11.76,6.79A2.47,2.47,0,0,1,163.37,49.9Z"/><path class="cls-3" d="M167,40.55c-5.15,0-6.22-2.36-6.22-4.34a.34.34,0,0,1,.34-.34h1.52a.34.34,0,0,1,.34.29c.23,1.55.91,2.33,4,2.33,2.48,0,3.53-.56,3.53-1.87,0-.76-.3-1.32-4.15-1.7-3.22-.32-5.21-1-5.21-3.6,0-2.37,2-3.79,5.35-3.79,3.77,0,5.63,1.31,5.87,4.11a.34.34,0,0,1-.34.37h-1.53a.34.34,0,0,1-.33-.27c-.37-1.63-1.26-2.15-3.67-2.15-2.71,0-3,.94-3,1.65s.37,1.1,4,1.59,5.33,1.15,5.33,3.69S170.73,40.55,167,40.55Z"/><path class="cls-2" d="M125.82,31a.29.29,0,0,1,.29,0l2.39,1.38a.29.29,0,0,1,.14.25v2.76a.29.29,0,0,1-.14.25L126.11,37a.29.29,0,0,1-.29,0l-2.39-1.38a.29.29,0,0,1-.14-.25V32.6a.29.29,0,0,1,.14-.25Z"/><path class="cls-3" d="M185.74,21.8a2.27,2.27,0,1,1-2.27-2.27A2.27,2.27,0,0,1,185.74,21.8Zm-4.17,0a1.9,1.9,0,1,0,1.89-1.89A1.9,1.9,0,0,0,181.58,21.79Zm1-1.27h.88c.3,0,.89,0,.89.67a.58.58,0,0,1-.48.62c.35,0,.37.25.42.58a2.5,2.5,0,0,0,.13.67h-.54c0-.12-.1-.77-.1-.8s-.08-.22-.26-.22h-.44v1h-.49Zm.48,1.12h.4a.34.34,0,0,0,.38-.36c0-.35-.24-.35-.37-.35h-.41Z"/></g></g></svg>