<?xml version="1.0" encoding="utf-8"?>
<!-- Generator: Adobe Illustrator 21.0.0, SVG Export Plug-In . SVG Version: 6.00 Build 0)  -->
<svg version="1.1" id="Layer_1" xmlns="http://www.w3.org/2000/svg" xmlns:xlink="http://www.w3.org/1999/xlink" x="0px" y="0px"
	 viewBox="0 0 2206.5 1963.2" style="enable-background:new 0 0 2206.5 1963.2;" xml:space="preserve">
<style type="text/css">
	.st0{fill:#53C1DE;}
</style>
<path class="st0" d="M1814.2,636.3L1814.2,636.3c-23.5-8.1-47.2-15.5-71-22.4c4-16.1,7.6-32.2,11-48.4
	c53.8-261,18.6-471.3-101.4-540.5c-115.1-66.4-303.4,2.8-493.5,168.3c-18.7,16.3-37.1,33.2-54.9,50.4c-12-11.5-24.2-22.7-36.6-33.8
	C868.5,33,668.7-41.6,548.8,27.9c-115,66.6-149.1,264.2-100.7,511.6c4.8,24.5,10.3,48.9,16.3,73.1c-28.3,8-55.6,16.6-81.7,25.7
	C149.2,719.7,0,847.3,0,979.7c0,136.8,160.1,273.9,403.5,357.1c19.7,6.7,39.6,12.9,59.7,18.7c-6.5,26.1-12.3,52.4-17.3,78.8
	c-46.2,243.1-10.1,436,104.6,502.2c118.5,68.3,317.3-1.9,510.9-171.1c15.3-13.4,30.7-27.6,46-42.4c19.4,18.7,39.3,36.8,59.6,54.4
	c187.5,161.4,372.7,226.5,487.3,160.2c118.4-68.5,156.8-275.8,106.9-528.1c-3.8-19.3-8.3-38.9-13.2-59c14-4.1,27.7-8.4,41-12.8
	c253-83.8,417.5-219.3,417.5-357.9C2206.5,846.8,2052.5,718.3,1814.2,636.3z M1221.1,264.4c162.9-141.8,315.2-197.7,384.5-157.7l0,0
	c73.9,42.6,102.6,214.5,56.2,439.8c-3,14.7-6.4,29.3-9.9,43.9c-91.5-21.1-190.9-36.8-295-46.6c-60.6-86.3-123.5-164.8-186.5-232.8
	C1186.9,295,1203.8,279.5,1221.1,264.4z M651.5,1092.8c20,38.5,40.8,76.6,62.6,114.2c22.2,38.3,45.3,76.1,69.3,113.3
	c-72.3-8.1-140.4-19-203.4-32.7C599.5,1224.7,623.5,1159.3,651.5,1092.8z M651.4,871.1C623.9,806,600.5,742,581.3,680.2
	c63-14.1,130.1-25.6,200-34.3c-23.4,36.5-46,73.6-67.6,111.2C692,794.6,671.3,832.6,651.4,871.1z M701.5,982
	c29-60.5,60.3-119.8,93.9-177.9v0c33.5-58.1,69.2-114.9,107-170.3c65.6-5,132.9-7.6,200.9-7.6c68.3,0,135.7,2.6,201.3,7.6
	c37.4,55.3,72.9,111.9,106.3,169.7c33.6,58,65.3,117,95.1,177c-29.5,60.6-61.1,120.2-94.8,178.6l0,0
	c-33.4,58.1-68.7,115-105.9,170.8c-65.5,4.7-133.1,7.1-202.1,7.1c-68.7,0-135.5-2.1-199.8-6.3c-38.1-55.6-74.1-112.7-107.8-171.1
	C762,1101.7,730.6,1042.4,701.5,982z M1492.8,1206.3c22.2-38.5,43.5-77.5,64-116.9h0c29.5,67.2,54.4,132.3,74.1,194.1
	c-64,14.6-133.1,26.4-205.8,35.1C1448.4,1281.6,1471,1244.2,1492.8,1206.3z M1555.9,871.2c-20.4-38.7-41.6-77-63.5-114.8v0
	c-21.6-37.3-43.9-74.1-67.1-110.3c70.4,8.9,137.9,20.7,201.2,35.2C1607.5,742.1,1583.8,805.9,1555.9,871.2z M1104.3,378.3
	c43.5,47.1,87,99.7,129.8,156.8c-86.9-4.1-173.9-4.1-260.8-0.1C1016.2,478.5,1060.2,426,1104.3,378.3z M596,109.4
	c73.8-42.7,237.1,18.2,409.1,171c11,9.8,22,20,33.1,30.6c-64.1,68.8-127.4,147.2-188,232.6c-103.8,9.6-203.1,25.1-294.4,45.8
	c-5.6-22.5-10.7-45.2-15.2-68v0C499.2,309.4,526.7,149.6,596,109.4z M488.4,1264.6c-18.3-5.2-36.5-10.9-54.5-17.1
	c-107.6-36.8-196.4-84.6-257.4-136.7c-54.7-46.9-82.4-93.4-82.4-131.2c0-80.3,119.8-182.8,319.6-252.5c25.1-8.7,50.4-16.7,75.9-23.9
	c27.6,89.8,63.8,183.7,107.5,278.7C553,1078.4,516.3,1173.8,488.4,1264.6z M999.3,1694.3c-85.6,74.8-171.4,127.9-247,154.6l0,0
	c-67.9,24-122,24.7-154.7,5.8c-69.6-40.1-98.5-195.1-59.1-403c4.7-24.6,10.1-49,16.1-73.3c90.4,20,190.4,34.4,297.4,43
	c61,85.9,125,164.9,189.4,234C1027.6,1668.8,1013.6,1681.8,999.3,1694.3z M1106.9,1587.8c-44.7-48.2-89.2-101.5-132.8-158.9
	c42.2,1.7,85.3,2.5,129.1,2.5c45,0,89.4-1,133.2-3C1193.5,1486.8,1150.1,1540.2,1106.9,1587.8z M1679.3,1718.9
	c-13.1,70.8-39.6,118.1-72.2,137c-69.5,40.3-218.3-12.1-378.6-150.1c-18.4-15.8-36.9-32.7-55.5-50.6c62.2-68,124.3-147.1,185-234.9
	c106.7-9.5,207.5-24.9,298.8-46.1c4.5,18.2,8.5,36,11.9,53.4v0C1690.8,1539.2,1693.9,1640.1,1679.3,1718.9z M1759.3,1248.1
	L1759.3,1248.1c-12.1,4-24.5,7.9-37.1,11.6c-27.9-88.4-65.6-182.4-111.7-279.5c44-94.8,80.2-187.6,107.4-275.5
	c22.6,6.5,44.5,13.4,65.6,20.7c204.2,70.3,328.7,174.2,328.7,254.3C2112.3,1065,1977.7,1175.8,1759.3,1248.1z"/>
<path class="st0" d="M1103.3,782.7c108.8,0,197,88.2,197,197c0,108.8-88.2,197-197,197c-108.8,0-197-88.2-197-197
	C906.2,870.9,994.4,782.7,1103.3,782.7"/>
</svg>
